<svg width="54" height="49" viewBox="0 0 54 49" fill="none" xmlns="http://www.w3.org/2000/svg">
<path d="M48.1322 19.1531V13.754C48.1322 13.0381 47.8509 12.3515 47.3502 11.8452C46.8494 11.3389 46.1703 11.0545 45.4622 11.0545H42.7922V13.754C42.7922 14.47 42.5109 15.1566 42.0102 15.6629C41.5094 16.1692 40.8303 16.4536 40.1222 16.4536C39.4141 16.4536 38.735 16.1692 38.2342 15.6629C37.7335 15.1566 37.4522 14.47 37.4522 13.754V11.0545H16.0923V13.754C16.0923 14.47 15.811 15.1566 15.3103 15.6629C14.8095 16.1692 14.1304 16.4536 13.4223 16.4536C12.7142 16.4536 12.035 16.1692 11.5343 15.6629C11.0336 15.1566 10.7523 14.47 10.7523 13.754V11.0545H8.0823C7.37418 11.0545 6.69505 11.3389 6.19433 11.8452C5.69361 12.3515 5.41231 13.0381 5.41231 13.754V19.1531H48.1322ZM48.1322 24.5521H5.41231V40.7492C5.41231 41.4652 5.69361 42.1518 6.19433 42.6581C6.69505 43.1643 7.37418 43.4487 8.0823 43.4487H45.4622C46.1703 43.4487 46.8494 43.1643 47.3502 42.6581C47.8509 42.1518 48.1322 41.4652 48.1322 40.7492V24.5521ZM42.7922 5.6555H45.4622C47.5866 5.6555 49.6239 6.50874 51.1261 8.02751C52.6283 9.54628 53.4722 11.6062 53.4722 13.754V40.7492C53.4722 42.8971 52.6283 44.957 51.1261 46.4757C49.6239 47.9945 47.5866 48.8478 45.4622 48.8478H8.0823C5.95792 48.8478 3.92056 47.9945 2.41839 46.4757C0.916232 44.957 0.0723267 42.8971 0.0723267 40.7492L0.0723267 13.754C0.0723267 11.6062 0.916232 9.54628 2.41839 8.02751C3.92056 6.50874 5.95792 5.6555 8.0823 5.6555H10.7523V2.95599C10.7523 2.24003 11.0336 1.5534 11.5343 1.04714C12.035 0.540882 12.7142 0.25647 13.4223 0.25647C14.1304 0.25647 14.8095 0.540882 15.3103 1.04714C15.811 1.5534 16.0923 2.24003 16.0923 2.95599V5.6555H37.4522V2.95599C37.4522 2.24003 37.7335 1.5534 38.2342 1.04714C38.735 0.540882 39.4141 0.25647 40.1222 0.25647C40.8303 0.25647 41.5094 0.540882 42.0102 1.04714C42.5109 1.5534 42.7922 2.24003 42.7922 2.95599V5.6555Z" fill="white"/>
</svg>
