<svg width="40" height="38" viewBox="0 0 40 38" fill="none" xmlns="http://www.w3.org/2000/svg">
<path d="M19.0231 0.0631447C8.37118 0.53306 -0.0320046 8.78477 9.1637e-05 18.7037C0.00536865 21.6234 0.751389 24.5001 2.17661 27.0964L0.054254 36.6846C0.0283582 36.8045 0.0351387 36.9285 0.0739684 37.0453C0.112798 37.1621 0.182423 37.2678 0.276406 37.3526C0.370388 37.4375 0.485694 37.4988 0.61166 37.5309C0.737625 37.5629 0.870185 37.5647 0.99708 37.5361L11.0953 35.3105C13.7699 36.549 16.7061 37.2117 19.6891 37.2504C30.5757 37.4064 39.6509 29.3652 39.9899 19.2432C40.355 8.38816 30.7282 -0.457521 19.0231 0.0612651V0.0631447ZM31.0732 28.9479C29.6178 30.3067 27.8906 31.3831 25.9904 32.1153C24.0903 32.8475 22.0546 33.2211 20 33.2147C17.5828 33.2217 15.197 32.7017 13.0311 31.696L11.6249 31.0437L5.43237 32.4083L6.73628 26.5231L6.0422 25.26C4.91703 23.2163 4.33355 20.9488 4.3411 18.6492C4.3411 14.7583 5.96998 11.0986 8.92685 8.34869C11.8741 5.6151 15.8531 4.08118 20 4.07998C24.1846 4.07998 28.1164 5.59499 31.0732 8.34681C32.53 9.69197 33.686 11.2957 34.4738 13.0643C35.2615 14.8329 35.6651 16.7309 35.661 18.6474C35.661 22.5044 34.006 26.2224 31.0732 28.9498V28.9479Z" fill="#EB9F4D"/>
<path d="M29.7071 22.6808L25.8335 21.647C25.5836 21.5798 25.3189 21.5768 25.0673 21.6383C24.8156 21.6998 24.5863 21.8236 24.4032 21.9966L23.4564 22.8951C23.2605 23.081 23.0104 23.2087 22.7375 23.2622C22.4645 23.3157 22.1808 23.2926 21.9218 23.1959C20.0903 22.506 16.2348 19.3181 15.2498 17.7223C15.1117 17.4969 15.0487 17.238 15.0687 16.9788C15.0887 16.7195 15.1909 16.4718 15.3621 16.2674L16.1886 15.2712C16.3477 15.0803 16.4484 14.8525 16.4798 14.6121C16.5113 14.3717 16.4723 14.1278 16.3671 13.9066L14.7383 10.4781C14.6461 10.2864 14.5078 10.1174 14.3342 9.98436C14.1606 9.85129 13.9564 9.75776 13.7377 9.71112C13.519 9.66449 13.2917 9.66602 13.0738 9.7156C12.8558 9.76519 12.6531 9.86146 12.4815 9.99687C11.4003 10.8484 10.1164 12.1397 9.96195 13.5739C9.68713 16.0982 10.8506 19.2805 15.2518 23.1037C20.337 27.5191 24.4113 28.1036 27.0612 27.504C28.5657 27.1657 29.7693 25.8067 30.5256 24.6958C30.6465 24.5194 30.7216 24.3188 30.7448 24.1102C30.7679 23.9016 30.7385 23.6908 30.6589 23.4948C30.5793 23.2988 30.4517 23.1231 30.2864 22.9817C30.1211 22.8403 29.9227 22.7373 29.7071 22.6808Z" fill="#EB9F4D"/>
</svg>
