<svg width="59" height="36" viewBox="0 0 59 36" fill="none" xmlns="http://www.w3.org/2000/svg">
<path d="M11.6145 5.87145C10.0743 5.87145 8.5972 6.49005 7.50813 7.59116C6.41906 8.69227 5.80723 10.1857 5.80723 11.7429V23.4858C5.80723 25.043 6.41906 26.5364 7.50813 27.6375C8.5972 28.7386 10.0743 29.3572 11.6145 29.3572H29.0362C30.5763 29.3572 32.0534 28.7386 33.1425 27.6375C34.2316 26.5364 34.8434 25.043 34.8434 23.4858V11.7429C34.8434 10.1857 34.2316 8.69227 33.1425 7.59116C32.0534 6.49005 30.5763 5.87145 29.0362 5.87145H11.6145ZM40.5925 10.5833L46.4579 4.65312C47.5471 3.55301 49.0239 2.93528 50.5636 2.93572H52.2651C53.8053 2.93572 55.2824 3.55432 56.3714 4.65543C57.4605 5.75654 58.0723 7.24997 58.0723 8.80717V26.4215C58.0723 27.9787 57.4605 29.4721 56.3714 30.5733C55.2824 31.6744 53.8053 32.293 52.2651 32.293H50.5636C49.0235 32.2926 47.5467 31.6738 46.4579 30.5726L40.5925 24.6454C40.308 27.5446 38.9677 30.2333 36.832 32.1892C34.6963 34.145 31.9177 35.2284 29.0362 35.2287H11.6145C8.53412 35.2287 5.57993 33.9915 3.4018 31.7893C1.22366 29.5871 0 26.6002 0 23.4858V11.7429C0 8.62849 1.22366 5.64163 3.4018 3.43941C5.57993 1.23719 8.53412 0 11.6145 0L29.0362 0C31.9177 0.000327103 34.6963 1.08366 36.832 3.03952C38.9677 4.99538 40.308 7.6841 40.5925 10.5833ZM50.5665 26.4215H52.2651V8.80717H50.5636L41.8527 17.6143L50.5636 26.4215H50.5665ZM14.5181 23.4858C13.748 23.4858 13.0094 23.1765 12.4649 22.6259C11.9204 22.0754 11.6145 21.3287 11.6145 20.5501C11.6145 19.7715 11.9204 19.0248 12.4649 18.4742C13.0094 17.9236 13.748 17.6143 14.5181 17.6143C15.2882 17.6143 16.0267 17.9236 16.5712 18.4742C17.1158 19.0248 17.4217 19.7715 17.4217 20.5501C17.4217 21.3287 17.1158 22.0754 16.5712 22.6259C16.0267 23.1765 15.2882 23.4858 14.5181 23.4858Z" fill="white"/>
</svg>
