<svg width="48" height="48" viewBox="0 0 48 48" fill="none" xmlns="http://www.w3.org/2000/svg">
<path d="M32.9427 40.4441H14.1183V44.0128C14.1183 44.9592 13.7464 45.8669 13.0845 46.5361C12.4226 47.2054 11.5248 47.5814 10.5887 47.5814H8.23567C7.29957 47.5814 6.40181 47.2054 5.73988 46.5361C5.07796 45.8669 4.7061 44.9592 4.7061 44.0128V40.0397C3.32939 39.5472 2.13756 38.6353 1.29474 37.4295C0.451924 36.2237 -0.000421026 34.7834 2.9405e-07 33.3069V26.1697C2.9405e-07 24.6947 0.442373 23.3244 1.20005 22.1872L3.75546 6.00953C4.02083 4.33272 4.86884 2.80652 6.14715 1.70506C7.42547 0.603598 9.05034 -0.000951296 10.7299 1.12363e-06H36.3311C38.0093 0.00140234 39.6322 0.607312 40.9086 1.70905C42.1851 2.81079 43.0315 4.33628 43.2961 6.01191L45.8444 22.1658C46.6115 23.3077 47.0586 24.6876 47.0586 26.1697V33.3069C47.059 34.7834 46.6067 36.2237 45.7639 37.4295C44.921 38.6353 43.7292 39.5472 42.3525 40.0397V44.0128C42.3525 44.9592 41.9806 45.8669 41.3187 46.5361C40.6568 47.2054 39.759 47.5814 38.8229 47.5814H36.4699C35.5338 47.5814 34.636 47.2054 33.9741 46.5361C33.3122 45.8669 32.9403 44.9592 32.9403 44.0128V40.4441H32.9427ZM7.05914 35.686H40.0018C40.6259 35.686 41.2244 35.4354 41.6657 34.9892C42.1069 34.543 42.3549 33.9379 42.3549 33.3069V26.1697C42.3549 25.5388 42.1069 24.9337 41.6657 24.4875C41.2244 24.0413 40.6259 23.7907 40.0018 23.7907H7.05914C6.43508 23.7907 5.83657 24.0413 5.39529 24.4875C4.95401 24.9337 4.7061 25.5388 4.7061 26.1697V33.3069C4.7061 33.9379 4.95401 34.543 5.39529 34.9892C5.83657 35.4354 6.43508 35.686 7.05914 35.686ZM40.5901 19.0563L38.6512 6.76131C38.5628 6.20318 38.2808 5.69509 37.8557 5.32803C37.4306 4.96098 36.8901 4.75895 36.3311 4.75814H10.7275C10.1677 4.75782 9.62607 4.95934 9.19996 5.32649C8.77386 5.69364 8.49119 6.20238 8.40273 6.76131L6.46147 19.0587C6.66025 19.0416 6.85964 19.0328 7.05914 19.0325H40.0018C40.1995 19.0325 40.3971 19.0397 40.5901 19.0563ZM36.4722 28.5488C36.1602 28.5488 35.861 28.6741 35.6403 28.8972C35.4197 29.1203 35.2957 29.4229 35.2957 29.7383C35.2957 30.0538 35.4197 30.3564 35.6403 30.5795C35.861 30.8026 36.1602 30.9279 36.4722 30.9279C36.7843 30.9279 37.0835 30.8026 37.3042 30.5795C37.5248 30.3564 37.6488 30.0538 37.6488 29.7383C37.6488 29.4229 37.5248 29.1203 37.3042 28.8972C37.0835 28.6741 36.7843 28.5488 36.4722 28.5488ZM36.4722 33.3069C36.0087 33.3069 35.5498 33.2146 35.1215 33.0353C34.6933 32.856 34.3042 32.5931 33.9765 32.2617C33.6487 31.9304 33.3887 31.537 33.2113 31.104C33.034 30.671 32.9427 30.207 32.9427 29.7383C32.9427 29.2697 33.034 28.8057 33.2113 28.3727C33.3887 27.9397 33.6487 27.5463 33.9765 27.215C34.3042 26.8836 34.6933 26.6207 35.1215 26.4414C35.5498 26.262 36.0087 26.1697 36.4722 26.1697C37.4083 26.1697 38.3061 26.5457 38.968 27.215C39.6299 27.8842 40.0018 28.7919 40.0018 29.7383C40.0018 30.6848 39.6299 31.5925 38.968 32.2617C38.3061 32.931 37.4083 33.3069 36.4722 33.3069ZM10.5887 28.5488C10.2767 28.5488 9.97743 28.6741 9.75679 28.8972C9.53615 29.1203 9.41219 29.4229 9.41219 29.7383C9.41219 30.0538 9.53615 30.3564 9.75679 30.5795C9.97743 30.8026 10.2767 30.9279 10.5887 30.9279C10.9007 30.9279 11.2 30.8026 11.4206 30.5795C11.6413 30.3564 11.7652 30.0538 11.7652 29.7383C11.7652 29.4229 11.6413 29.1203 11.4206 28.8972C11.2 28.6741 10.9007 28.5488 10.5887 28.5488ZM10.5887 33.3069C10.1252 33.3069 9.66623 33.2146 9.23801 33.0353C8.80978 32.856 8.42068 32.5931 8.09293 32.2617C7.76518 31.9304 7.50519 31.537 7.32782 31.104C7.15044 30.671 7.05914 30.207 7.05914 29.7383C7.05914 29.2697 7.15044 28.8057 7.32782 28.3727C7.50519 27.9397 7.76518 27.5463 8.09293 27.215C8.42068 26.8836 8.80978 26.6207 9.23801 26.4414C9.66623 26.262 10.1252 26.1697 10.5887 26.1697C11.5248 26.1697 12.4226 26.5457 13.0845 27.215C13.7464 27.8842 14.1183 28.7919 14.1183 29.7383C14.1183 30.6848 13.7464 31.5925 13.0845 32.2617C12.4226 32.931 11.5248 33.3069 10.5887 33.3069ZM12.2453 7.36084C12.8693 7.36084 13.4678 7.61149 13.9091 8.05765C14.3504 8.50381 14.5983 9.10894 14.5983 9.7399V14.498C14.5983 15.129 14.3504 15.7341 13.9091 16.1803C13.4678 16.6265 12.8693 16.8771 12.2453 16.8771C11.6212 16.8771 11.0227 16.6265 10.5814 16.1803C10.1401 15.7341 9.89221 15.129 9.89221 14.498V9.7399C9.89221 9.10894 10.1401 8.50381 10.5814 8.05765C11.0227 7.61149 11.6212 7.36084 12.2453 7.36084Z" fill="white"/>
</svg>
