<svg width="25" height="31" viewBox="0 0 25 31" fill="none" xmlns="http://www.w3.org/2000/svg">
<path d="M9.84083 30.2537C9.59501 30.2546 9.3515 30.1691 9.12429 30.002C8.89708 29.8349 8.69064 29.5895 8.51681 29.28L0.572658 15.1317C0.393675 14.8243 0.250863 14.4565 0.152557 14.0498C0.0542502 13.6431 0.0024174 13.2056 8.25596e-05 12.7629C-0.00225228 12.3201 0.0449576 11.881 0.138958 11.4711C0.232958 11.0612 0.371865 10.6887 0.547576 10.3754C0.723286 10.0621 0.93228 9.81423 1.16236 9.64628C1.39245 9.47833 1.63901 9.39364 1.88767 9.39717C2.13633 9.40071 2.38211 9.49238 2.61066 9.66684C2.83921 9.84131 3.04595 10.0951 3.21884 10.4133L9.83896 22.2009L21.7589 0.983305C21.9328 0.673494 22.1392 0.427695 22.3665 0.259943C22.5937 0.0921909 22.8372 0.00577026 23.0832 0.00561544C23.3292 0.00546062 23.5728 0.0915748 23.8001 0.259041C24.0274 0.426507 24.2339 0.672046 24.4079 0.981638C24.5819 1.29123 24.72 1.65881 24.8142 2.0634C24.9084 2.46798 24.9569 2.90165 24.957 3.33963C24.9571 3.77762 24.9087 4.21134 24.8147 4.61605C24.7206 5.02075 24.5827 5.38851 24.4089 5.69832L11.1649 29.28C10.991 29.5895 10.7846 29.8349 10.5574 30.002C10.3302 30.1691 10.0867 30.2546 9.84083 30.2537Z" fill="white"/>
</svg>
