<svg width="30" height="30" viewBox="0 0 30 30" fill="none" xmlns="http://www.w3.org/2000/svg">
<path d="M19.0377 15.0014L29.1285 4.90778C29.4012 4.64445 29.6186 4.32947 29.7683 3.98121C29.9179 3.63294 29.9966 3.25837 29.9999 2.87934C30.0032 2.50032 29.931 2.12444 29.7874 1.77362C29.6439 1.42281 29.4319 1.1041 29.1639 0.836075C28.8959 0.568055 28.5772 0.356097 28.2264 0.212568C27.8756 0.069039 27.4997 -0.00318584 27.1207 0.000107778C26.7416 0.00340139 26.3671 0.0821475 26.0188 0.231751C25.6705 0.381355 25.3556 0.59882 25.0922 0.871457L14.9986 10.9623L4.90778 0.871457C4.64445 0.59882 4.32947 0.381355 3.98121 0.231751C3.63294 0.0821475 3.25837 0.00340139 2.87934 0.000107778C2.50032 -0.00318584 2.12444 0.069039 1.77362 0.212568C1.42281 0.356097 1.1041 0.568055 0.836075 0.836075C0.568055 1.1041 0.356097 1.42281 0.212568 1.77362C0.069039 2.12444 -0.00318584 2.50032 0.000107778 2.87934C0.00340139 3.25837 0.0821475 3.63294 0.231751 3.98121C0.381355 4.32947 0.59882 4.64445 0.871457 4.90778L10.9623 14.9986L0.871457 25.0922C0.59882 25.3556 0.381355 25.6705 0.231751 26.0188C0.0821475 26.3671 0.00340139 26.7416 0.000107778 27.1207C-0.00318584 27.4997 0.069039 27.8756 0.212568 28.2264C0.356097 28.5772 0.568055 28.8959 0.836075 29.1639C1.1041 29.4319 1.42281 29.6439 1.77362 29.7874C2.12444 29.931 2.50032 30.0032 2.87934 29.9999C3.25837 29.9966 3.63294 29.9179 3.98121 29.7683C4.32947 29.6186 4.64445 29.4012 4.90778 29.1285L14.9986 19.0377L25.0922 29.1285C25.3556 29.4012 25.6705 29.6186 26.0188 29.7683C26.3671 29.9179 26.7416 29.9966 27.1207 29.9999C27.4997 30.0032 27.8756 29.931 28.2264 29.7874C28.5772 29.6439 28.8959 29.4319 29.1639 29.1639C29.4319 28.8959 29.6439 28.5772 29.7874 28.2264C29.931 27.8756 30.0032 27.4997 29.9999 27.1207C29.9966 26.7416 29.9179 26.3671 29.7683 26.0188C29.6186 25.6705 29.4012 25.3556 29.1285 25.0922L19.0377 15.0014Z" fill="#292929"/>
</svg>
