<svg width="64" height="39" viewBox="0 0 64 39" fill="none" xmlns="http://www.w3.org/2000/svg">
<path d="M57.0706 19.2342C57.0706 13.4319 45.1492 6.45964 31.6837 6.41156C18.3102 6.36347 6.34118 13.3935 6.34118 19.2342C6.34118 25.0845 18.2436 32.076 31.6964 32.0568C45.1873 32.0375 57.0706 25.0684 57.0706 19.2342ZM31.7059 38.4681C15.7198 38.4905 0 29.8577 0 19.2342C0 8.61063 15.8022 -0.0542404 31.7059 0.000255657C47.6096 0.0547517 63.4118 8.61063 63.4118 19.2342C63.4118 29.8577 47.692 38.4456 31.7059 38.4681ZM31.7059 32.0568C28.3423 32.0568 25.1165 30.7058 22.7381 28.3011C20.3597 25.8964 19.0235 22.6349 19.0235 19.2342C19.0235 15.8334 20.3597 12.5719 22.7381 10.1672C25.1165 7.76251 28.3423 6.41156 31.7059 6.41156C35.0695 6.41156 38.2953 7.76251 40.6737 10.1672C43.0521 12.5719 44.3883 15.8334 44.3883 19.2342C44.3883 22.6349 43.0521 25.8964 40.6737 28.3011C38.2953 30.7058 35.0695 32.0568 31.7059 32.0568ZM31.7059 25.6455C33.3877 25.6455 35.0006 24.97 36.1898 23.7676C37.379 22.5653 38.0471 20.9345 38.0471 19.2342C38.0471 17.5338 37.379 15.903 36.1898 14.7007C35.0006 13.4983 33.3877 12.8229 31.7059 12.8229C30.0241 12.8229 28.4112 13.4983 27.222 14.7007C26.0328 15.903 25.3647 17.5338 25.3647 19.2342C25.3647 20.9345 26.0328 22.5653 27.222 23.7676C28.4112 24.97 30.0241 25.6455 31.7059 25.6455Z" fill="white"/>
</svg>
