<svg width="50" height="45" viewBox="0 0 50 45" fill="none" xmlns="http://www.w3.org/2000/svg">
<path d="M7.35916 14.8811C6.70857 14.8811 6.08463 15.1424 5.62459 15.6075C5.16456 16.0726 4.90611 16.7035 4.90611 17.3613V37.2027C4.90611 37.8605 5.16456 38.4913 5.62459 38.9565C6.08463 39.4216 6.70857 39.6829 7.35916 39.6829H41.7019C42.3525 39.6829 42.9765 39.4216 43.4365 38.9565C43.8965 38.4913 44.155 37.8605 44.155 37.2027V17.3613C44.155 16.7035 43.8965 16.0726 43.4365 15.6075C42.9765 15.1424 42.3525 14.8811 41.7019 14.8811H7.35916ZM12.2653 9.92072V7.44054C12.2653 5.46719 13.0406 3.57466 14.4207 2.17928C15.8008 0.783912 17.6727 0 19.6244 0L29.4367 0C31.3884 0 33.2603 0.783912 34.6404 2.17928C36.0205 3.57466 36.7958 5.46719 36.7958 7.44054V9.92072H41.7019C43.6537 9.92072 45.5255 10.7046 46.9057 12.1C48.2858 13.4954 49.0611 15.3879 49.0611 17.3613V37.2027C49.0611 39.1761 48.2858 41.0686 46.9057 42.464C45.5255 43.8593 43.6537 44.6432 41.7019 44.6432H7.35916C5.40739 44.6432 3.53556 43.8593 2.15545 42.464C0.775338 41.0686 0 39.1761 0 37.2027L0 17.3613C0 15.3879 0.775338 13.4954 2.15545 12.1C3.53556 10.7046 5.40739 9.92072 7.35916 9.92072H12.2653ZM17.1714 9.92072H31.8897V7.44054C31.8897 6.78276 31.6313 6.15191 31.1712 5.68679C30.7112 5.22166 30.0872 4.96036 29.4367 4.96036H19.6244C18.9738 4.96036 18.3499 5.22166 17.8899 5.68679C17.4298 6.15191 17.1714 6.78276 17.1714 7.44054V9.92072ZM22.0775 19.8414H26.9836V34.7225H22.0775V19.8414ZM17.1714 24.8018H31.8897V29.7622H17.1714V24.8018Z" fill="white"/>
</svg>
