<svg width="61" height="41" viewBox="0 0 61 41" fill="none" xmlns="http://www.w3.org/2000/svg">
<path d="M17.5218 12.6563H20.0249C20.6888 12.6563 21.3255 12.9229 21.7949 13.3975C22.2643 13.8722 22.5281 14.5159 22.5281 15.1871C22.5281 15.8583 22.2643 16.502 21.7949 16.9766C21.3255 17.4512 20.6888 17.7179 20.0249 17.7179H17.5218V20.2487C17.5218 20.9199 17.2581 21.5636 16.7887 22.0382C16.3192 22.5128 15.6826 22.7795 15.0187 22.7795C14.3548 22.7795 13.7182 22.5128 13.2487 22.0382C12.7793 21.5636 12.5156 20.9199 12.5156 20.2487V17.7179H10.0125C9.3486 17.7179 8.71192 17.4512 8.2425 16.9766C7.77307 16.502 7.50935 15.8583 7.50935 15.1871C7.50935 14.5159 7.77307 13.8722 8.2425 13.3975C8.71192 12.9229 9.3486 12.6563 10.0125 12.6563H12.5156V10.1255C12.5156 9.45429 12.7793 8.81057 13.2487 8.33595C13.7182 7.86134 14.3548 7.5947 15.0187 7.5947C15.6826 7.5947 16.3192 7.86134 16.7887 8.33595C17.2581 8.81057 17.5218 9.45429 17.5218 10.1255V12.6563ZM23.324 2.53311H36.7508C39.0137 1.01457 41.6415 0.144865 44.3545 0.0165819C47.0675 -0.111701 49.7641 0.506238 52.1573 1.80462C54.5505 3.10299 56.5507 5.03321 57.9449 7.38979C59.3391 9.74636 60.0752 12.4411 60.0748 15.1871C60.0748 23.5741 53.3514 40.4951 45.0561 40.4951C40.11 40.4951 35.722 34.4768 32.9861 27.8411H27.0887C24.3553 34.4768 19.9649 40.4951 15.0187 40.4951C6.72337 40.4951 1.73754e-07 23.5741 1.73754e-07 15.1871C-0.000412893 12.4411 0.735672 9.74636 2.1299 7.38979C3.52412 5.03321 5.52429 3.10299 7.91749 1.80462C10.3107 0.506238 13.0073 -0.111701 15.7203 0.0165819C18.4333 0.144865 21.0612 1.01457 23.324 2.53311ZM38.2627 7.5947H21.8122L20.5506 6.74688C19.0418 5.73568 17.29 5.15698 15.4817 5.07234C13.6735 4.9877 11.8763 5.40029 10.2815 6.26622C8.68675 7.13215 7.35399 8.41901 6.42507 9.98989C5.49614 11.5608 5.00581 13.3569 5.00623 15.1871C5.00623 23.0756 11.3692 35.4335 15.0187 35.4335C16.826 35.4335 20.035 31.7942 22.468 25.8924L23.7546 22.7795H36.3252L37.6093 25.8924C40.0399 31.7942 43.2489 35.4335 45.0561 35.4335C48.7057 35.4335 55.0686 23.0756 55.0686 15.1871C55.069 13.3569 54.5787 11.5608 53.6497 9.98989C52.7208 8.41901 51.3881 7.13215 49.7933 6.26622C48.1985 5.40029 46.4014 4.9877 44.5931 5.07234C42.7848 5.15698 41.0331 5.73568 39.5242 6.74688L38.2627 7.5947ZM45.0561 12.6563C44.3922 12.6563 43.7556 12.3897 43.2861 11.915C42.8167 11.4404 42.553 10.7967 42.553 10.1255C42.553 9.45429 42.8167 8.81057 43.2861 8.33595C43.7556 7.86134 44.3922 7.5947 45.0561 7.5947C45.72 7.5947 46.3567 7.86134 46.8261 8.33595C47.2955 8.81057 47.5592 9.45429 47.5592 10.1255C47.5592 10.7967 47.2955 11.4404 46.8261 11.915C46.3567 12.3897 45.72 12.6563 45.0561 12.6563ZM40.0499 17.7179C39.386 17.7179 38.7493 17.4512 38.2799 16.9766C37.8105 16.502 37.5468 15.8583 37.5468 15.1871C37.5468 14.5159 37.8105 13.8722 38.2799 13.3975C38.7493 12.9229 39.386 12.6563 40.0499 12.6563C40.7137 12.6563 41.3504 12.9229 41.8199 13.3975C42.2893 13.8722 42.553 14.5159 42.553 15.1871C42.553 15.8583 42.2893 16.502 41.8199 16.9766C41.3504 17.4512 40.7137 17.7179 40.0499 17.7179ZM50.0623 17.7179C49.3985 17.7179 48.7618 17.4512 48.2924 16.9766C47.8229 16.502 47.5592 15.8583 47.5592 15.1871C47.5592 14.5159 47.8229 13.8722 48.2924 13.3975C48.7618 12.9229 49.3985 12.6563 50.0623 12.6563C50.7262 12.6563 51.3629 12.9229 51.8323 13.3975C52.3017 13.8722 52.5655 14.5159 52.5655 15.1871C52.5655 15.8583 52.3017 16.502 51.8323 16.9766C51.3629 17.4512 50.7262 17.7179 50.0623 17.7179ZM45.0561 22.7795C44.3922 22.7795 43.7556 22.5128 43.2861 22.0382C42.8167 21.5636 42.553 20.9199 42.553 20.2487C42.553 19.5775 42.8167 18.9338 43.2861 18.4591C43.7556 17.9845 44.3922 17.7179 45.0561 17.7179C45.72 17.7179 46.3567 17.9845 46.8261 18.4591C47.2955 18.9338 47.5592 19.5775 47.5592 20.2487C47.5592 20.9199 47.2955 21.5636 46.8261 22.0382C46.3567 22.5128 45.72 22.7795 45.0561 22.7795Z" fill="white"/>
</svg>
