<svg width="52" height="50" viewBox="0 0 52 50" fill="none" xmlns="http://www.w3.org/2000/svg">
<path d="M15.319 21.4048H25.5751L27.0661 22.8787C28.4641 24.2684 30.2293 25.2204 32.1495 25.6202L34.9477 26.1984L40.9834 42.9646C41.0981 43.2832 41.2737 43.5759 41.5002 43.826C41.7268 44.076 41.9998 44.2785 42.3038 44.4218C42.6077 44.5652 42.9366 44.6466 43.2717 44.6614C43.6067 44.6762 43.9414 44.6242 44.2566 44.5083C44.5717 44.3923 44.8612 44.2148 45.1085 43.9857C45.3558 43.7567 45.5561 43.4806 45.6978 43.1733C45.8396 42.866 45.9202 42.5335 45.9348 42.1947C45.9495 41.8559 45.898 41.5176 45.7834 41.1989L39.8268 24.6599L41.8515 22.3573C43.6135 20.3563 44.5372 17.7411 44.4276 15.0643C44.318 12.3874 43.1836 9.85847 41.2641 8.01152C39.3446 6.16458 36.7901 5.14428 34.1404 5.16613C31.4906 5.18798 28.953 6.25027 27.0635 8.12863L25.5725 9.60261H15.319V21.4048ZM10.2127 21.4048V9.60261H5.10633V21.4048H10.2127ZM23.4891 26.5676H5.10633C3.75205 26.5676 2.45323 26.0236 1.49561 25.0554C0.537987 24.0872 0 22.774 0 21.4048V9.60261C0 8.23335 0.537987 6.92017 1.49561 5.95196C2.45323 4.98375 3.75205 4.43981 5.10633 4.43981H23.4891C26.3242 1.62378 30.1307 0.031951 34.1049 0.000475766C38.079 -0.0309995 41.9097 1.50034 44.7881 4.27112C47.6664 7.04191 49.367 10.8352 49.5308 14.8501C49.6946 18.8649 48.3088 22.7869 45.6659 25.788L50.5808 39.4332C50.934 40.3909 51.0963 41.4099 51.0581 42.4313C51.02 43.4527 50.7823 44.4564 50.3587 45.3844C49.935 46.3125 49.3339 47.1466 48.5899 47.8386C47.8459 48.5306 46.9737 49.0669 46.0237 49.4165C45.0737 49.7661 44.0647 49.9221 43.0548 49.8754C42.0449 49.8288 41.0541 49.5805 40.1396 49.1449C39.225 48.7093 38.4048 48.0949 37.7263 47.3372C37.0477 46.5795 36.5242 45.6935 36.186 44.7303L31.1256 30.6771C28.2428 30.0789 25.592 28.6519 23.4917 26.5676H23.4891ZM30.638 12.9223H38.2975C38.9746 12.9223 39.624 13.1943 40.1028 13.6784C40.5816 14.1625 40.8506 14.8191 40.8506 15.5037C40.8506 16.1883 40.5816 16.8449 40.1028 17.329C39.624 17.8131 38.9746 18.0851 38.2975 18.0851H30.638C29.9608 18.0851 29.3114 17.8131 28.8326 17.329C28.3538 16.8449 28.0848 16.1883 28.0848 15.5037C28.0848 14.8191 28.3538 14.1625 28.8326 13.6784C29.3114 13.1943 29.9608 12.9223 30.638 12.9223Z" fill="white"/>
</svg>
