<svg width="53" height="52" viewBox="0 0 53 52" fill="none" xmlns="http://www.w3.org/2000/svg">
<path d="M46.9345 46.0689V17.7309L26.0747 5.215L5.21495 17.7309V46.0689H15.6448V38.8983C15.6448 36.1322 16.7437 33.4793 18.6997 31.5233C20.6557 29.5673 23.3086 28.4685 26.0747 28.4685C28.8409 28.4685 31.4938 29.5673 33.4498 31.5233C35.4058 33.4793 36.5046 36.1322 36.5046 38.8983V46.0689H46.9345ZM31.2897 51.2838V38.8983C31.2897 37.5153 30.7403 36.1888 29.7623 35.2108C28.7843 34.2328 27.4578 33.6834 26.0747 33.6834C24.6916 33.6834 23.3652 34.2328 22.3872 35.2108C21.4092 36.1888 20.8598 37.5153 20.8598 38.8983V51.2838H5.21495C3.83186 51.2838 2.50542 50.7344 1.52742 49.7564C0.54943 48.7784 2.41425e-10 47.452 2.41424e-10 46.0689V17.7309C-8.66396e-06 16.8303 0.233188 15.9451 0.676882 15.1615C1.12058 14.3778 1.75964 13.7224 2.53186 13.2591L23.3916 0.74318C24.2021 0.256882 25.1296 0 26.0747 0C27.0199 0 27.9473 0.256882 28.7578 0.74318L49.6176 13.2591C50.3898 13.7224 51.0289 14.3778 51.4726 15.1615C51.9163 15.9451 52.1495 16.8303 52.1495 17.7309V46.0689C52.1495 47.452 51.6 48.7784 50.6221 49.7564C49.6441 50.7344 48.3176 51.2838 46.9345 51.2838H31.2897Z" fill="white"/>
</svg>
