<svg width="50" height="51" viewBox="0 0 50 51" fill="none" xmlns="http://www.w3.org/2000/svg">
<path d="M18.1028 32.9392V34.3851C18.1028 37.3452 19.2658 40.184 21.336 42.277C23.4062 44.3701 26.2139 45.546 29.1416 45.546C32.0692 45.546 34.877 44.3701 36.9471 42.277C39.0173 40.184 40.1803 37.3452 40.1803 34.3851V30.2432C38.5429 29.6581 37.1628 28.5066 36.284 26.9922C35.4051 25.4778 35.0841 23.698 35.3777 21.9674C35.6713 20.2368 36.5605 18.6669 37.8882 17.5351C39.216 16.4033 40.8967 15.7826 42.6334 15.7826C44.37 15.7826 46.0507 16.4033 47.3785 17.5351C48.7062 18.6669 49.5955 20.2368 49.889 21.9674C50.1826 23.698 49.8616 25.4778 48.9827 26.9922C48.1039 28.5066 46.7238 29.6581 45.0864 30.2432V34.3851C45.0864 38.6607 43.4065 42.7612 40.4163 45.7845C37.426 48.8078 33.3704 50.5063 29.1416 50.5063C24.9127 50.5063 20.8571 48.8078 17.8668 45.7845C14.8766 42.7612 13.1967 38.6607 13.1967 34.3851V32.9392C9.76715 32.3521 6.65395 30.5563 4.40888 27.8701C2.16381 25.1839 0.931873 21.7808 0.931427 18.264L0.931427 5.86307C0.931427 4.5475 1.44832 3.28581 2.36839 2.35557C3.28847 1.42532 4.53636 0.90271 5.83754 0.90271L8.29059 0.90271C8.94118 0.90271 9.56513 1.16401 10.0252 1.62914C10.4852 2.09426 10.7436 2.72511 10.7436 3.38289C10.7436 4.04067 10.4852 4.67152 10.0252 5.13664C9.56513 5.60177 8.94118 5.86307 8.29059 5.86307H5.83754V18.264C5.83754 20.8951 6.87132 23.4185 8.71147 25.279C10.5516 27.1395 13.0474 28.1847 15.6498 28.1847C18.2521 28.1847 20.7479 27.1395 22.588 25.279C24.4282 23.4185 25.462 20.8951 25.462 18.264V5.86307H23.0089C22.3583 5.86307 21.7344 5.60177 21.2743 5.13664C20.8143 4.67152 20.5559 4.04067 20.5559 3.38289C20.5559 2.72511 20.8143 2.09426 21.2743 1.62914C21.7344 1.16401 22.3583 0.90271 23.0089 0.90271L25.462 0.90271C26.7632 0.90271 28.011 1.42532 28.9311 2.35557C29.8512 3.28581 30.3681 4.5475 30.3681 5.86307V18.264C30.3676 21.7808 29.1357 25.1839 26.8906 27.8701C24.6456 30.5563 21.5324 32.3521 18.1028 32.9392ZM42.6334 25.7045C43.2839 25.7045 43.9079 25.4432 44.3679 24.9781C44.828 24.513 45.0864 23.8821 45.0864 23.2243C45.0864 22.5665 44.828 21.9357 44.3679 21.4706C43.9079 21.0055 43.2839 20.7442 42.6334 20.7442C41.9828 20.7442 41.3588 21.0055 40.8988 21.4706C40.4387 21.9357 40.1803 22.5665 40.1803 23.2243C40.1803 23.8821 40.4387 24.513 40.8988 24.9781C41.3588 25.4432 41.9828 25.7045 42.6334 25.7045Z" fill="white"/>
</svg>
