<svg width="52" height="52" viewBox="0 0 52 52" fill="none" xmlns="http://www.w3.org/2000/svg">
<path d="M19.392 36.8185L21.0087 36.5375C21.322 36.4813 21.6959 36.3996 22.1278 36.2872C27.4682 34.9335 31.0048 30.8981 31.0048 26.5356C31.0048 21.0826 25.5079 16.3192 18.374 16.3192C11.2401 16.3192 5.74312 21.0826 5.74312 26.5356C5.74312 29.6465 7.51649 32.6093 10.6211 34.5811L10.7121 34.6321L13.3216 36.088V43.145L19.392 36.8185ZM21.8727 41.5691L12.6092 51.2236C12.2592 51.5887 11.8092 51.8399 11.3171 51.9449C10.825 52.0499 10.3131 52.004 9.84693 51.813C9.38077 51.6221 8.98159 51.2948 8.70053 50.8731C8.41947 50.4514 8.26931 49.9545 8.26928 49.4459V39.1018C8.15643 39.0402 8.04524 38.9754 7.93583 38.9077C3.54282 36.1186 0.690781 31.6158 0.690781 26.5356C0.690781 18.0714 8.60779 11.211 18.374 11.211C28.1401 11.211 36.0571 18.0714 36.0571 26.5356C36.0571 33.4981 30.6991 39.3777 23.3606 41.2422C22.8688 41.3696 22.3725 41.4787 21.8727 41.5691ZM18.2123 8.65693C21.2689 4.07743 26.9882 0.994629 33.531 0.994629C43.2971 0.994629 51.2141 7.85495 51.2141 16.3192C51.2141 21.3993 48.3596 25.9022 43.9691 28.6913C43.8597 28.759 43.7485 28.8238 43.6356 28.8854V39.2295C43.6356 39.7381 43.4855 40.235 43.2044 40.6567C42.9233 41.0784 42.5241 41.4057 42.058 41.5966C41.5918 41.7876 41.0799 41.8335 40.5878 41.7285C40.0957 41.6235 39.6458 41.3723 39.2957 41.0072L34.9128 36.4405L37.5476 31.8482L38.5833 32.9286V25.8716L41.1928 24.4157L41.2838 24.3647C44.391 22.3929 46.1618 19.4301 46.1618 16.3192C46.1618 10.8662 40.6649 6.10283 33.531 6.10283C30.2975 6.10283 27.4025 7.08105 25.2022 8.65693H18.2123Z" fill="white"/>
</svg>
