<svg width="91" height="91" viewBox="0 0 91 91" fill="none" xmlns="http://www.w3.org/2000/svg">
<circle cx="45.5" cy="45.5" r="44" fill="white" stroke="#EB9F4D" stroke-width="3"/>
<path d="M55.2025 45.9941L39.128 30.9321C38.5365 30.3582 38.2092 29.5895 38.2166 28.7917C38.224 27.9939 38.5655 27.2307 39.1676 26.6666C39.7697 26.1024 40.5841 25.7824 41.4356 25.7754C42.287 25.7685 43.1073 26.0752 43.7198 26.6295L62.0902 43.8428C62.699 44.4134 63.041 45.1872 63.041 45.9941C63.041 46.8009 62.699 47.5748 62.0902 48.1454L43.7198 65.3587C43.1073 65.913 42.287 66.2197 41.4356 66.2127C40.5841 66.2058 39.7697 65.8858 39.1676 65.3216C38.5655 64.7575 38.224 63.9943 38.2166 63.1965C38.2092 62.3986 38.5365 61.63 39.128 61.0561L55.2025 45.9941Z" fill="#EB9F4D"/>
</svg>
