<svg width="91" height="91" viewBox="0 0 91 91" fill="none" xmlns="http://www.w3.org/2000/svg">
<circle cx="45.5" cy="45.5" r="44" fill="white" stroke="#EB9F4D" stroke-width="3"/>
<path d="M32.8385 45.2188L48.913 30.1567C49.5045 29.5828 49.8319 28.8142 49.8245 28.0164C49.8171 27.2186 49.4755 26.4554 48.8735 25.8912C48.2714 25.3271 47.4569 25.007 46.6054 25.0001C45.754 24.9932 44.9337 25.2999 44.3212 25.8542L25.9508 43.0675C25.342 43.6381 25 44.4119 25 45.2188C25 46.0256 25.342 46.7994 25.9508 47.3701L44.3212 64.5834C44.9337 65.1377 45.754 65.4444 46.6054 65.4374C47.4569 65.4305 48.2714 65.1105 48.8735 64.5463C49.4755 63.9821 49.8171 63.219 49.8245 62.4211C49.8319 61.6233 49.5045 60.8547 48.913 60.2808L32.8385 45.2188Z" fill="#EB9F4D"/>
</svg>
