<svg width="44" height="60" viewBox="0 0 44 60" fill="none" xmlns="http://www.w3.org/2000/svg">
<path d="M5.45035 12.9903V23.6941C5.45074 27.5012 6.19983 31.2643 7.64744 34.7311C9.09504 38.198 11.2077 41.2885 13.8439 43.7956L21.8014 51.3629L29.7589 43.7956C32.3953 41.2886 34.508 38.1981 35.9556 34.7312C37.4033 31.2644 38.1523 27.5013 38.1525 23.6941V12.9903L21.8014 6.32633L5.45035 12.9903ZM1.76864 8.16262L21.8014 0L41.8342 8.16558C42.3535 8.37716 42.8011 8.75593 43.1172 9.25129C43.4332 9.74664 43.6026 10.335 43.6028 10.9378V23.6941C43.6028 33.1036 39.8639 42.0571 33.348 48.256L21.8014 59.2353L10.2548 48.256C7.03358 45.1928 4.4521 41.4165 2.68346 37.1803C0.914813 32.9441 -0.000117652 28.346 1.13475e-08 23.6941V10.9378C0.000208269 10.335 0.169645 9.74664 0.485678 9.25129C0.801711 8.75593 1.24929 8.3742 1.76864 8.16262Z" fill="white"/>
</svg>
