<svg width="38" height="47" viewBox="0 0 38 47" fill="none" xmlns="http://www.w3.org/2000/svg">
<path d="M34.3441 11.7049L32.6585 42.3953C32.5934 43.5906 32.0778 44.7153 31.2178 45.5383C30.3578 46.3612 29.2187 46.8197 28.0347 46.8197H9.01147C7.8274 46.8197 6.6883 46.3612 5.82831 45.5383C4.96832 44.7153 4.45278 43.5906 4.38765 42.3953L2.70205 11.7049H2.31538C1.70131 11.7049 1.11238 11.4583 0.67816 11.0193C0.243942 10.5803 0 9.98481 0 9.36395V2.34099C0 1.72012 0.243942 1.12468 0.67816 0.685659C1.11238 0.246639 1.70131 0 2.31538 0L34.7308 0C35.3448 0 35.9338 0.246639 36.368 0.685659C36.8022 1.12468 37.0461 1.72012 37.0461 2.34099V9.36395C37.0461 9.98481 36.8022 10.5803 36.368 11.0193C35.9338 11.4583 35.3448 11.7049 34.7308 11.7049H34.3441ZM29.7064 11.7049H7.33977L9.01147 42.1378H28.0347L29.7064 11.7049ZM4.63077 4.68197V7.02296H32.4154V4.68197H4.63077ZM13.8923 16.3869C14.5064 16.3869 15.0953 16.6335 15.5295 17.0726C15.9637 17.5116 16.2077 18.107 16.2077 18.7279V35.1148C16.2077 35.7357 15.9637 36.3311 15.5295 36.7701C15.0953 37.2091 14.5064 37.4558 13.8923 37.4558C13.2782 37.4558 12.6893 37.2091 12.2551 36.7701C11.8209 36.3311 11.5769 35.7357 11.5769 35.1148V18.7279C11.5769 18.107 11.8209 17.5116 12.2551 17.0726C12.6893 16.6335 13.2782 16.3869 13.8923 16.3869ZM23.1538 16.3869C23.7679 16.3869 24.3568 16.6335 24.7911 17.0726C25.2253 17.5116 25.4692 18.107 25.4692 18.7279V35.1148C25.4692 35.7357 25.2253 36.3311 24.7911 36.7701C24.3568 37.2091 23.7679 37.4558 23.1538 37.4558C22.5398 37.4558 21.9508 37.2091 21.5166 36.7701C21.0824 36.3311 20.8385 35.7357 20.8385 35.1148V18.7279C20.8385 18.107 21.0824 17.5116 21.5166 17.0726C21.9508 16.6335 22.5398 16.3869 23.1538 16.3869Z" fill="white"/>
</svg>
