<svg width="44" height="47" viewBox="0 0 44 47" fill="none" xmlns="http://www.w3.org/2000/svg">
<path d="M8.42021 24.5547C8.68399 24.4409 8.96766 24.3817 9.25445 24.3806C9.54124 24.3796 9.82533 24.4367 10.0899 24.5485C10.3545 24.6604 10.5942 24.8248 10.7949 25.0319C10.9956 25.2391 11.1532 25.4848 11.2583 25.7545C11.3635 26.0243 11.4141 26.3127 11.4071 26.6025C11.4001 26.8924 11.3358 27.1779 11.2178 27.4422C11.0998 27.7065 10.9306 27.9442 10.7203 28.1413C10.5099 28.3383 10.2625 28.4907 9.99288 28.5895C8.55868 29.1608 7.32776 30.1553 6.46028 31.4437C5.59279 32.732 5.1289 34.2545 5.12896 35.8131V39.5876C5.12896 40.1629 5.35501 40.7147 5.75738 41.1215C6.15974 41.5283 6.70546 41.7568 7.27449 41.7568H24.4387C25.0078 41.7568 25.5535 41.5283 25.9558 41.1215C26.3582 40.7147 26.5843 40.1629 26.5843 39.5876V36.0148C26.5845 34.4063 26.1012 32.8356 25.1985 31.5111C24.2957 30.1865 23.0162 29.1707 21.5294 28.5981C21.2581 28.5029 21.0084 28.3536 20.7952 28.1591C20.582 27.9645 20.4096 27.7287 20.2883 27.4655C20.1669 27.2023 20.099 26.9172 20.0887 26.627C20.0783 26.3368 20.1257 26.0475 20.228 25.7762C20.3302 25.5048 20.4854 25.257 20.6841 25.0474C20.8829 24.8379 21.1213 24.6707 21.3851 24.556C21.6489 24.4413 21.9329 24.3813 22.22 24.3796C22.5072 24.3778 22.7918 24.4344 23.057 24.546C25.3562 25.4314 27.335 27.0023 28.7312 29.0504C30.1274 31.0986 30.8751 33.5273 30.8753 36.0148V39.5876C30.8753 41.3135 30.1972 42.9688 28.9901 44.1893C27.783 45.4097 26.1458 46.0953 24.4387 46.0953H7.27449C5.5674 46.0953 3.93023 45.4097 2.72314 44.1893C1.51604 42.9688 0.837906 41.3135 0.837906 39.5876L0.837906 35.8131C0.838201 33.3839 1.56154 31.0109 2.91384 29.003C4.26613 26.9951 6.18478 25.4451 8.42021 24.5547ZM15.8566 2.71027C18.1327 2.71027 20.3156 3.62445 21.9251 5.25171C23.5345 6.87896 24.4387 9.086 24.4387 11.3873V15.7258C24.4387 18.0271 23.5345 20.2341 21.9251 21.8614C20.3156 23.4886 18.1327 24.4028 15.8566 24.4028C13.5805 24.4028 11.3976 23.4886 9.78814 21.8614C8.17868 20.2341 7.27449 18.0271 7.27449 15.7258V11.3873C7.27449 9.086 8.17868 6.87896 9.78814 5.25171C11.3976 3.62445 13.5805 2.71027 15.8566 2.71027ZM15.8566 7.04878C14.7186 7.04878 13.6271 7.50587 12.8224 8.3195C12.0176 9.13312 11.5656 10.2366 11.5656 11.3873V15.7258C11.5656 16.8764 12.0176 17.98 12.8224 18.7936C13.6271 19.6072 14.7186 20.0643 15.8566 20.0643C16.9947 20.0643 18.0861 19.6072 18.8908 18.7936C19.6956 17.98 20.1477 16.8764 20.1477 15.7258V11.3873C20.1477 10.2366 19.6956 9.13312 18.8908 8.3195C18.0861 7.50587 16.9947 7.04878 15.8566 7.04878ZM35.1664 43.9261C34.5973 43.9261 34.0516 43.6975 33.6493 43.2907C33.2469 42.8839 33.0208 42.3322 33.0208 41.7568C33.0208 41.1815 33.2469 40.6298 33.6493 40.2229C34.0516 39.8161 34.5973 39.5876 35.1664 39.5876H37.3119C37.8809 39.5876 38.4267 39.359 38.829 38.9522C39.2314 38.5454 39.4574 37.9937 39.4574 37.4183V33.4312C39.4573 31.8892 38.9774 30.3863 38.0856 29.1354C37.1938 27.8845 35.9353 26.949 34.4884 26.4614C34.221 26.3714 33.9738 26.229 33.7608 26.0424C33.5479 25.8558 33.3733 25.6286 33.2472 25.3738C33.1211 25.1189 33.0459 24.8415 33.0258 24.5573C33.0057 24.2731 33.0412 23.9877 33.1303 23.7173C33.2193 23.447 33.3601 23.197 33.5447 22.9817C33.7293 22.7664 33.954 22.5899 34.206 22.4624C34.4581 22.3349 34.7325 22.2589 35.0136 22.2386C35.2947 22.2183 35.577 22.2542 35.8444 22.3442C38.1461 23.1196 40.148 24.6077 41.5667 26.5976C42.9853 28.5875 43.7486 30.9783 43.7485 33.4312V37.4183C43.7485 39.1443 43.0704 40.7996 41.8633 42.02C40.6562 43.2405 39.019 43.9261 37.3119 43.9261H35.1664ZM28.7298 4.87952C28.1608 4.87952 27.615 4.65098 27.2127 4.24416C26.8103 3.83735 26.5843 3.28559 26.5843 2.71027C26.5843 2.13495 26.8103 1.58319 27.2127 1.17638C27.615 0.769561 28.1608 0.541016 28.7298 0.541016C31.0059 0.541016 33.1888 1.4552 34.7983 3.08245C36.4077 4.70971 37.3119 6.91674 37.3119 9.21803V13.5565C37.3119 15.8578 36.4077 18.0649 34.7983 19.6921C33.1888 21.3194 31.0059 22.2336 28.7298 22.2336C28.1608 22.2336 27.615 22.005 27.2127 21.5982C26.8103 21.1914 26.5843 20.6396 26.5843 20.0643C26.5843 19.489 26.8103 18.9372 27.2127 18.5304C27.615 18.1236 28.1608 17.895 28.7298 17.895C29.8678 17.895 30.9593 17.438 31.764 16.6243C32.5688 15.8107 33.0208 14.7072 33.0208 13.5565V9.21803C33.0208 8.06739 32.5688 6.96387 31.764 6.15024C30.9593 5.33661 29.8678 4.87952 28.7298 4.87952Z" fill="white"/>
</svg>
